<?xml version="1.0" standalone="no"?>
<!DOCTYPE svg PUBLIC "-//W3C//DTD SVG 20010904//EN"
 "http://www.w3.org/TR/2001/REC-SVG-20010904/DTD/svg10.dtd">
<svg version="1.0" xmlns="http://www.w3.org/2000/svg"
 width="498.000000pt" height="498.000000pt" viewBox="0 0 498.000000 498.000000"
 preserveAspectRatio="xMidYMid meet">
<metadata>
Created by potrace 1.14, written by Peter Selinger 2001-2017
</metadata>
<g transform="translate(0.000000,498.000000) scale(0.100000,-0.100000)"
fill="#000000" stroke="none">
<path d="M4832 4478 c-28 -28 4 -77 42 -62 25 10 31 46 10 61 -22 16 -36 17
-52 1z"/>
<path d="M4737 4352 c-37 -40 15 -90 54 -51 23 23 24 33 3 53 -20 21 -37 20
-57 -2z"/>
<path d="M4644 4242 c-7 -4 -67 -86 -134 -182 -68 -96 -144 -204 -169 -240
-25 -36 -125 -180 -223 -320 -97 -140 -181 -259 -185 -265 -25 -30 -121 -173
-126 -187 -3 -10 2 -27 12 -39 33 -41 58 -20 161 128 211 304 380 545 567 811
172 244 177 252 157 280 -15 22 -39 28 -60 14z"/>
<path d="M2362 4034 c-21 -15 -22 -20 -17 -131 3 -64 7 -143 10 -177 2 -33 7
-95 10 -136 18 -228 26 -331 30 -351 2 -8 6 -53 10 -100 4 -46 8 -91 10 -99 2
-8 6 -44 10 -80 4 -36 8 -72 10 -80 2 -8 6 -46 10 -85 3 -38 8 -83 10 -100 2
-16 6 -61 10 -100 4 -38 8 -81 10 -95 5 -28 12 -102 20 -200 3 -36 7 -90 10
-120 9 -111 16 -196 20 -255 2 -33 6 -85 9 -115 3 -30 8 -86 11 -125 15 -180
16 -186 31 -320 12 -111 47 -162 89 -131 22 16 22 24 0 196 -8 61 -15 133 -20
190 -8 102 -16 195 -20 240 -2 25 -7 81 -10 125 -4 44 -8 96 -10 115 -2 19 -6
76 -10 125 -3 50 -8 113 -10 140 -3 28 -8 73 -10 100 -3 28 -7 75 -10 105 -3
30 -8 66 -10 80 -3 14 -7 54 -10 90 -3 36 -7 81 -10 100 -6 42 -11 85 -20 165
-3 33 -8 71 -10 85 -2 14 -7 57 -10 95 -3 39 -8 84 -10 100 -3 28 -11 94 -20
190 -2 22 -7 76 -10 120 -3 44 -8 103 -10 130 -2 28 -7 91 -10 140 -10 133
-13 156 -26 171 -15 18 -20 18 -47 -2z"/>
<path d="M821 3267 c-57 -14 -64 -73 -11 -84 25 -4 27 -8 21 -32 -9 -29 -7
-69 8 -181 6 -41 13 -102 16 -135 4 -33 8 -67 10 -75 2 -8 7 -97 11 -197 l6
-182 -85 -88 c-204 -211 -324 -388 -371 -551 -22 -77 -17 -215 11 -267 55
-104 177 -150 285 -109 134 52 201 199 243 534 5 36 14 290 15 419 0 15 25 47
75 98 41 41 75 79 75 84 0 25 -22 49 -45 49 -13 0 -40 -13 -58 -30 -19 -16
-39 -30 -45 -30 -5 0 -10 35 -11 78 -4 143 -22 339 -38 417 -2 11 -6 48 -10
82 -5 55 -3 63 13 69 47 15 87 41 97 62 9 19 7 27 -11 44 -16 16 -38 23 -96
27 -41 4 -88 3 -105 -2z m63 -1139 c-6 -188 -17 -277 -48 -419 -42 -183 -98
-259 -194 -259 -88 0 -134 50 -138 153 -4 95 35 202 124 338 76 117 237 303
253 294 4 -3 5 -51 3 -107z"/>
<path d="M4578 3273 c-20 -5 -31 -33 -22 -57 9 -23 51 -20 65 5 9 18 8 25 -7
39 -11 9 -27 15 -36 13z"/>
<path d="M327 3193 c-8 -10 -38 -65 -67 -123 -49 -100 -55 -107 -121 -153 -39
-26 -73 -55 -76 -64 -9 -22 10 -47 40 -53 l26 -5 -30 -68 c-16 -38 -36 -83
-44 -100 -69 -151 -72 -217 -9 -217 24 0 54 34 54 61 0 13 78 201 130 314 5
11 19 43 31 72 17 42 30 58 68 79 81 47 111 73 111 99 0 29 -13 38 -51 37 -34
-1 -34 -2 -9 48 24 47 24 54 4 74 -20 21 -37 20 -57 -1z"/>
<path d="M4380 3119 c-207 -169 -250 -208 -250 -229 0 -26 27 -50 50 -45 24 5
329 253 331 269 3 25 -4 51 -15 58 -23 16 -44 6 -116 -53z"/>
<path d="M3191 3131 c-17 -11 -18 -48 -7 -211 11 -168 14 -198 20 -273 6 -62
-2 -100 -23 -117 -4 -3 -29 -32 -57 -65 -156 -183 -240 -375 -200 -453 14 -26
19 -29 43 -23 26 7 28 12 34 67 6 62 15 88 63 169 43 72 147 206 156 200 4 -3
11 -35 15 -72 4 -38 13 -102 20 -143 8 -41 17 -91 20 -110 27 -163 27 -164 46
-259 6 -30 12 -64 14 -75 13 -98 50 -203 74 -211 24 -7 51 4 52 21 1 8 2 20 3
27 1 6 -6 46 -16 88 -9 41 -19 86 -21 100 -3 13 -13 60 -22 104 -22 104 -21
102 -30 155 -4 25 -9 52 -10 60 -11 61 -18 109 -20 130 -1 14 -5 43 -9 65 -7
43 -12 90 -21 172 l-5 51 58 52 c230 207 509 292 603 184 45 -52 41 -151 -9
-234 -73 -120 -149 -212 -196 -234 -18 -9 -36 -25 -39 -35 -8 -30 20 -61 54
-61 53 0 184 141 260 279 108 196 57 371 -123 420 -133 37 -344 -37 -544 -190
-36 -28 -68 -48 -72 -45 -8 8 -9 20 -17 120 -3 45 -8 95 -10 111 -2 17 -6 66
-10 110 -3 44 -9 89 -12 100 -9 33 -35 43 -62 26z"/>
<path d="M1821 2822 c-5 -10 -50 -126 -100 -257 -49 -132 -93 -248 -97 -258
-4 -10 -35 -36 -70 -58 -35 -22 -66 -49 -69 -60 -10 -31 14 -52 51 -46 36 6
36 12 1 -93 -8 -25 -25 -79 -37 -120 -13 -41 -31 -101 -41 -134 -34 -104 -21
-151 38 -144 30 3 31 6 54 108 11 52 108 363 131 423 6 15 15 30 20 33 20 12
76 15 83 5 3 -6 -3 -38 -15 -71 -23 -65 -18 -93 20 -103 32 -8 58 23 75 89 19
79 19 99 -2 135 -19 32 -31 38 -88 45 -22 3 -40 6 -41 7 -1 1 34 103 78 227
44 124 81 232 83 240 8 43 -53 70 -74 32z"/>
<path d="M4592 2758 c-16 -16 -15 -33 3 -51 19 -20 52 -11 59 16 10 38 -34 63
-62 35z"/>
<path d="M4342 2701 c-171 -53 -174 -55 -170 -92 5 -50 28 -51 168 -9 153 46
178 57 186 83 7 21 -26 58 -50 56 -6 0 -66 -18 -134 -38z"/>
<path d="M4603 1498 c-6 -7 -13 -42 -16 -78 -7 -72 -28 -142 -44 -147 -6 -2
-15 15 -19 39 -4 24 -8 45 -9 48 0 3 -4 21 -8 42 -4 20 -14 39 -22 42 -22 8
-73 -4 -79 -20 -7 -19 9 -106 37 -200 28 -91 28 -122 0 -444 -3 -41 -6 -120
-7 -175 l-1 -99 33 -10 c58 -17 63 -4 77 209 18 282 52 447 115 550 31 52 56
166 45 212 -8 33 -83 55 -102 31z"/>
<path d="M3005 1228 c-19 -9 -75 -80 -75 -96 0 -4 -8 -23 -19 -42 -27 -52 -90
-240 -93 -280 -3 -29 0 -35 16 -35 16 0 27 21 56 105 50 141 107 270 119 270
4 0 5 -82 3 -182 -4 -173 -3 -184 16 -201 49 -44 105 45 193 303 45 132 47
170 9 150 -12 -6 -23 -17 -24 -23 -5 -18 -65 -180 -99 -270 -16 -43 -32 -75
-35 -72 -3 3 -5 77 -3 165 1 88 0 168 -4 180 -9 27 -35 40 -60 28z"/>
<path d="M4901 1225 c-86 -45 -268 -384 -246 -455 11 -36 36 -18 55 40 26 80
49 130 63 135 7 2 40 6 75 9 69 5 67 8 61 -79 -6 -103 -4 -119 13 -123 9 -2
21 5 27 16 19 35 33 366 18 424 -10 37 -36 50 -66 33z m19 -140 c0 -64 -2 -75
-17 -76 -10 0 -35 -2 -55 -4 -28 -2 -38 1 -38 11 0 26 83 143 103 144 4 0 7
-34 7 -75z"/>
<path d="M3420 1198 c-61 -63 -156 -246 -193 -375 -13 -44 -13 -53 -2 -63 22
-18 30 -7 65 85 17 48 37 88 44 90 6 2 35 6 64 8 42 3 55 0 62 -13 5 -10 8
-19 5 -21 -2 -2 -6 -33 -10 -68 -5 -48 -3 -66 7 -72 20 -13 26 -11 38 11 24
45 33 388 12 428 -18 32 -54 28 -92 -10z m47 -194 c-7 -7 -89 -14 -98 -8 -11
7 25 77 65 129 l31 39 3 -78 c2 -43 1 -80 -1 -82z"/>
<path d="M4165 1198 c-20 -17 -54 -57 -74 -87 -68 -100 -151 -324 -134 -356
15 -26 38 3 68 88 l28 78 76 -3 76 -3 -1 -30 c-1 -16 -3 -52 -5 -80 -4 -45 -2
-50 18 -53 24 -4 30 9 38 83 3 28 8 73 11 100 10 82 6 252 -6 274 -16 30 -54
26 -95 -11z m52 -128 c-2 -44 -6 -83 -10 -87 -10 -10 -116 -13 -122 -4 -5 9
59 118 93 156 12 14 27 23 32 20 5 -3 8 -41 7 -85z"/>
<path d="M3705 1210 c-3 -5 -17 -49 -30 -97 -13 -49 -38 -139 -56 -201 -23
-81 -29 -116 -21 -124 20 -20 40 1 61 65 18 53 28 68 61 90 l39 25 16 -56 c8
-32 20 -74 26 -95 11 -40 33 -57 51 -39 8 8 4 36 -15 100 -40 131 -40 130 53
219 77 74 99 113 63 113 -10 0 -40 -21 -68 -46 -27 -25 -70 -65 -95 -87 -25
-23 -54 -49 -64 -57 -19 -14 -19 -13 -12 20 4 19 10 46 12 60 3 14 9 41 13 60
4 19 6 41 4 48 -5 14 -29 16 -38 2z"/>
</g>
</svg>
